<svg width="18" height="17" viewBox="0 0 18 17" fill="none" xmlns="http://www.w3.org/2000/svg">
<path d="M15.912 5.91253C15.618 5.89447 15.3269 5.86124 15.044 5.78254C14.5525 5.64642 14.0782 5.34869 13.8677 4.88774C13.7178 4.55872 13.7152 4.18422 13.7084 3.82262C13.7045 3.62876 13.6964 3.42974 13.6615 3.23813C13.6278 3.05685 13.4675 2.92621 13.2827 2.92621H11.4421L10.7016 0.903716C10.5821 0.577279 10.3565 0.309871 10.0661 0.150523C9.76333 -0.0152763 9.42726 -0.045275 9.12001 0.0663331L4.95768 1.57853C4.4348 1.76852 4.13726 2.33333 4.2114 2.91815C3.88698 2.88686 3.57746 2.76331 3.31619 2.56461C2.88137 2.23366 2.16455 1.79368 1.42086 1.79368C1.19293 1.79368 0.962409 1.83497 0.736745 1.93367C0.255305 2.14334 -0.05551 2.63235 0.0089194 3.15072C0.056513 3.53683 0.30646 3.92843 1.11361 3.9581C1.62095 3.97778 2.09591 4.22422 2.36496 4.65162C2.3873 4.68613 2.40867 4.72323 2.43036 4.76161C2.4459 4.79065 2.45821 4.82323 2.46501 4.85548L3.54962 9.61753C3.86659 11.0075 5.10143 12.0007 6.53701 12.0213L12.4001 12.1071C12.4156 12.1071 12.4308 12.1074 12.4461 12.1074C13.8816 12.1074 15.1336 11.1301 15.4694 9.74043L16.0855 7.18377C16.0965 7.14151 16.1046 7.09732 16.1108 7.05377L16.2616 6.37477C16.3128 6.14736 16.1464 5.92737 15.9116 5.91221L15.912 5.91253ZM5.14611 2.09367L9.30876 0.581795C9.4645 0.525023 9.63933 0.542764 9.80089 0.631148C9.97443 0.726305 10.1111 0.889846 10.1849 1.09177L10.8275 2.84783H4.75662C4.71356 2.51203 4.86735 2.19527 5.14611 2.09399V2.09367ZM15.5736 6.93571L15.5691 6.95668L15.5662 6.97797C15.5623 7.00571 15.5581 7.02861 15.5532 7.04603L15.5519 7.05119L15.5506 7.05635L14.9345 9.6127C14.8011 10.1649 14.4803 10.6627 14.0306 11.0142C13.5809 11.3658 13.0185 11.5597 12.4464 11.5597C12.4338 11.5597 12.4211 11.5597 12.4085 11.5597L6.5451 11.4739C5.97333 11.4658 5.41386 11.2646 4.96966 10.9072C4.5261 10.5504 4.21237 10.0495 4.08642 9.4969L3.00181 4.73581C2.98368 4.65452 2.95454 4.57614 2.91504 4.50259L2.9131 4.49905L2.91115 4.4955C2.88979 4.45743 2.86162 4.40744 2.82924 4.35744C2.47148 3.79166 1.8382 3.43748 1.13401 3.41038C0.903484 3.402 0.728651 3.3549 0.642205 3.27845C0.611771 3.25168 0.570005 3.20233 0.555112 3.08362C0.522412 2.81976 0.687856 2.55365 0.9582 2.43591C1.1026 2.37269 1.25412 2.34204 1.42119 2.34204C2.02695 2.34204 2.65927 2.7546 2.98238 3.0004C3.38418 3.30619 3.87824 3.47457 4.37361 3.47457H13.1392C13.1519 3.59554 13.1557 3.72069 13.158 3.83327L13.1587 3.86746C13.1661 4.25422 13.1745 4.69259 13.3668 5.11483C13.6236 5.67674 14.1811 6.11285 14.8957 6.31058C15.1304 6.37606 15.379 6.41896 15.6827 6.44541L15.574 6.93539L15.5736 6.93571Z" fill="#D6D6D6"/>
<path d="M6.48614 12.4565C5.35393 12.4565 4.4325 13.3742 4.4325 14.5026C4.4325 15.6309 5.35361 16.5486 6.48614 16.5486C7.61867 16.5486 8.53979 15.6309 8.53979 14.5026C8.53979 13.3742 7.61867 12.4565 6.48614 12.4565ZM6.48614 15.9999C5.6573 15.9999 4.9829 15.328 4.9829 14.5023C4.9829 13.6765 5.6573 13.0046 6.48614 13.0046C7.31498 13.0046 7.98938 13.6765 7.98938 14.5023C7.98938 15.328 7.31498 15.9999 6.48614 15.9999Z" fill="#D6D6D6"/>
<path d="M11.612 12.4565C10.4798 12.4565 9.55835 13.3742 9.55835 14.5026C9.55835 15.6309 10.4795 16.5486 11.612 16.5486C12.7445 16.5486 13.6656 15.6309 13.6656 14.5026C13.6656 13.3742 12.7445 12.4565 11.612 12.4565ZM11.612 15.9999C10.7832 15.9999 10.1088 15.328 10.1088 14.5023C10.1088 13.6765 10.7832 13.0046 11.612 13.0046C12.4408 13.0046 13.1152 13.6765 13.1152 14.5023C13.1152 15.328 12.4408 15.9999 11.612 15.9999Z" fill="#D6D6D6"/>
<path d="M16.2139 1.69727C15.2287 1.69727 14.4274 2.49594 14.4274 3.47751C14.4274 4.45908 15.229 5.25776 16.2139 5.25776C17.1988 5.25776 18.0004 4.45908 18.0004 3.47751C18.0004 2.49594 17.1988 1.69727 16.2139 1.69727ZM16.2139 4.70907C15.5324 4.70907 14.9778 4.15651 14.9778 3.47719C14.9778 2.79786 15.5324 2.24531 16.2139 2.24531C16.8954 2.24531 17.45 2.79786 17.45 3.47719C17.45 4.15651 16.8954 4.70907 16.2139 4.70907Z" fill="#D6D6D6"/>
<path d="M16.8822 3.82472C16.7825 4.11826 16.5778 4.15922 16.4794 4.16083C16.4364 4.16148 16.3936 4.15051 16.359 4.12503C16.2758 4.06342 16.2664 3.95117 16.2894 3.85311C16.2962 3.81311 16.3088 3.76375 16.3224 3.70279C16.3366 3.63924 16.3483 3.58989 16.3554 3.55473C16.3619 3.52312 16.3658 3.49086 16.3671 3.45861C16.3664 3.3928 16.3412 3.35797 16.292 3.35829C16.2576 3.35829 16.1689 3.38538 16.1323 3.54118C16.1323 3.54118 16.1136 3.64892 16.0524 3.89439C15.9714 4.29018 15.7772 4.15987 15.6101 4.10051C15.6587 4.09729 15.7169 4.03503 15.7474 3.93084C15.851 3.57473 15.9938 2.83734 15.9938 2.83734L16.3072 2.78638L16.1887 3.28861C16.2233 3.24958 16.267 3.21862 16.3166 3.19829C16.3522 3.18571 16.3901 3.17894 16.4283 3.1783C16.4979 3.17765 16.5529 3.1941 16.5953 3.22862C16.6381 3.26571 16.6601 3.32216 16.6614 3.39732C16.6594 3.45667 16.651 3.51538 16.6361 3.57312C16.6316 3.59086 16.6261 3.61602 16.6186 3.64957C16.616 3.66182 16.6128 3.67376 16.6096 3.68569C16.5872 3.76472 16.5458 3.9202 16.6157 3.976C16.7106 4.05181 16.8822 3.8244 16.8822 3.8244V3.82472Z" fill="#D6D6D6"/>
</svg>
