<svg width="100" height="100" viewBox="0 0 100 100" fill="none" xmlns="http://www.w3.org/2000/svg">
<path d="M85.3105 0H14.6892C6.57659 0 0 6.5766 0 14.6893V85.3107C0 93.4233 6.57659 99.9999 14.6892 99.9999H85.3105C93.4232 99.9999 99.9997 93.4233 99.9997 85.3107V14.6893C99.9997 6.5766 93.4232 0 85.3105 0Z" fill="url(#paint0_radial_27_3)"/>
<g opacity="0.5">
<mask id="mask0_27_3" style="mask-type:alpha" maskUnits="userSpaceOnUse" x="0" y="0" width="100" height="100">
<path d="M100 85.3107L100 14.6893C100 6.5766 93.4234 -5.08827e-07 85.3108 -1.1365e-06L14.6895 -6.60042e-06C6.57684 -7.22809e-06 0.000251608 6.5766 0.000251407 14.6892L0.000249663 85.3107C0.000249463 93.4233 6.57684 99.9999 14.6895 99.9999L85.3108 99.9999C93.4234 99.9999 100 93.4233 100 85.3107Z" fill="url(#paint1_radial_27_3)"/>
</mask>
<g mask="url(#mask0_27_3)">
<g style="mix-blend-mode:color-burn" opacity="0.7">
<path d="M79.0954 -18.2023C53.9737 -36.8558 17.3585 -30.0925 -2.68703 -3.09602C-22.7325 23.9004 -18.6175 60.907 6.50424 79.5605C31.6259 98.214 68.2412 91.4507 88.2866 64.4543C108.332 37.4578 104.217 0.451204 79.0954 -18.2023Z" fill="url(#paint2_linear_27_3)"/>
<path d="M41.5281 87.6204C56.3955 81.433 68.1841 68.505 72.6406 51.1112C80.5638 20.2083 62.3786 -13.0778 32.0251 -23.2408C28.1282 -24.5452 24.2161 -25.3987 20.3393 -25.8452C31.8824 -30.6229 45.272 -31.3409 58.5389 -26.9042C65.7529 -24.4928 72.2763 -20.7781 77.9261 -16.0897C96.0617 -1.0706 105.204 23.8776 99.1564 47.4392C92.2479 74.3695 67.783 90.6045 41.5249 87.6148L41.5281 87.6204Z" fill="url(#paint3_linear_27_3)"/>
<path d="M-12.5185 57.1328C-0.0668358 69.1118 17.7083 75.1745 36.7323 72.1179C70.5339 66.6816 95.508 34.5329 92.5016 0.314442C92.1144 -4.08522 91.282 -8.29949 90.0651 -12.2992C99.709 -2.98561 106.15 9.88403 107.467 24.8436C108.181 32.9769 107.319 40.9887 105.125 48.5515C98.1115 72.8306 77.4748 92.5091 51.6977 96.6471C22.2423 101.384 -4.20853 84.2591 -12.5137 57.1364L-12.5185 57.1328Z" fill="url(#paint4_linear_27_3)"/>
</g>
</g>
</g>
<mask id="mask1_27_3" style="mask-type:alpha" maskUnits="userSpaceOnUse" x="0" y="0" width="100" height="100">
<path d="M85.3105 0H14.6892C6.57659 0 0 6.5766 0 14.6893V85.3107C0 93.4233 6.57659 99.9999 14.6892 99.9999H85.3105C93.4232 99.9999 99.9997 93.4233 99.9997 85.3107V14.6893C99.9997 6.5766 93.4232 0 85.3105 0Z" fill="url(#paint5_radial_27_3)"/>
</mask>
<g mask="url(#mask1_27_3)">
<path d="M15.5135 40.7002C14.4342 37.7403 15.6562 34.5763 18.2427 33.6332L40.7232 25.4364C43.3098 24.4932 46.2815 26.1282 47.3607 29.0881L53.5163 45.9703C54.5955 48.9302 53.3736 52.0943 50.787 53.0374L28.3066 61.2342C25.72 62.1773 22.7482 60.5423 21.669 57.5824L15.5135 40.7002Z" fill="url(#paint6_radial_27_3)"/>
<path d="M76.8957 56.7927C78.1652 56.8738 79.0616 58.0654 78.7871 59.2996L77.9722 62.9809C77.9379 63.2157 77.895 63.4549 77.8349 63.6855L74.5067 77.5437C72.6754 85.1583 65.7874 90.488 57.9301 90.3727L26.265 89.9072C18.5107 89.7962 11.8414 84.4109 10.1301 76.8775L4.27149 51.0615C4.23289 50.8864 4.16856 50.7113 4.08278 50.5533C3.96698 50.344 3.85118 50.1433 3.73109 49.9554C2.27715 47.6407 -0.287623 46.304 -3.02824 46.1973C-7.38578 46.035 -8.73678 43.9125 -8.99412 41.8199C-9.34152 39.0098 -7.66456 36.3577 -5.06118 35.2217C0.13269 32.9455 5.80263 36.2979 8.86921 38.6425C10.5119 39.8981 12.5105 40.6027 14.5778 40.6027H62.6951C63.6944 40.6027 64.5608 41.3117 64.7409 42.2939C64.9296 43.3317 64.9725 44.4121 64.9939 45.4627C65.0325 47.4229 65.0454 49.4515 65.856 51.2366C66.9926 53.7349 69.553 55.3492 72.2079 56.0881C73.739 56.5151 75.3131 56.6945 76.9043 56.7927H76.8957Z" fill="#6F58D0"/>
<path d="M76.8957 56.7927C78.1652 56.8738 79.0616 58.0654 78.7871 59.2996L77.9722 62.9809C77.9379 63.2157 77.895 63.4549 77.8349 63.6855L74.5067 77.5437C72.6754 85.1583 65.7874 90.488 57.9301 90.3727L26.265 89.9072C18.5107 89.7962 11.8414 84.4109 10.1301 76.8775L4.27149 51.0615C4.23289 50.8864 4.16856 50.7113 4.08278 50.5533C3.96698 50.344 3.85118 50.1433 3.73109 49.9554C2.27715 47.6407 -0.287623 46.304 -3.02824 46.1973C-7.38578 46.035 -8.73678 43.9125 -8.99412 41.8199C-9.34152 39.0098 -7.66456 36.3577 -5.06118 35.2217C0.13269 32.9455 5.80263 36.2979 8.86921 38.6425C10.5119 39.8981 12.5105 40.6027 14.5778 40.6027H62.6951C63.6944 40.6027 64.5608 41.3117 64.7409 42.2939C64.9296 43.3317 64.9725 44.4121 64.9939 45.4627C65.0325 47.4229 65.0454 49.4515 65.856 51.2366C66.9926 53.7349 69.553 55.3492 72.2079 56.0881C73.739 56.5151 75.3131 56.6945 76.9043 56.7927H76.8957Z" fill="url(#paint7_radial_27_3)" fill-opacity="0.8"/>
<mask id="mask2_27_3" style="mask-type:alpha" maskUnits="userSpaceOnUse" x="-10" y="34" width="89" height="57">
<path d="M76.8957 56.7927C78.1652 56.8738 79.0616 58.0654 78.7871 59.2996L77.9722 62.9809C77.9379 63.2157 77.895 63.4549 77.8349 63.6855L74.5067 77.5437C72.6754 85.1583 65.7874 90.488 57.9301 90.3727L26.265 89.9072C18.5107 89.7962 11.8414 84.4109 10.1301 76.8775L4.27149 51.0615C4.23289 50.8864 4.16856 50.7113 4.08278 50.5533C3.96698 50.344 3.85118 50.1433 3.73109 49.9554C2.27715 47.6407 -0.287623 46.304 -3.02824 46.1973C-7.38578 46.035 -8.73678 43.9125 -8.99412 41.8199C-9.34152 39.0098 -7.66456 36.3577 -5.06118 35.2217C0.13269 32.9455 5.80263 36.2979 8.86921 38.6425C10.5119 39.8981 12.5105 40.6027 14.5778 40.6027H62.6951C63.6944 40.6027 64.5608 41.3117 64.7409 42.2939C64.9296 43.3317 64.9725 44.4121 64.9939 45.4627C65.0325 47.4229 65.0454 49.4515 65.856 51.2366C66.9926 53.7349 69.553 55.3492 72.2079 56.0881C73.739 56.5151 75.3131 56.6945 76.9043 56.7927H76.8957Z" fill="url(#paint8_radial_27_3)"/>
<path d="M76.8957 56.7927C78.1652 56.8738 79.0616 58.0654 78.7871 59.2996L77.9722 62.9809C77.9379 63.2157 77.895 63.4549 77.8349 63.6855L74.5067 77.5437C72.6754 85.1583 65.7874 90.488 57.9301 90.3727L26.265 89.9072C18.5107 89.7962 11.8414 84.4109 10.1301 76.8775L4.27149 51.0615C4.23289 50.8864 4.16856 50.7113 4.08278 50.5533C3.96698 50.344 3.85118 50.1433 3.73109 49.9554C2.27715 47.6407 -0.287623 46.304 -3.02824 46.1973C-7.38578 46.035 -8.73678 43.9125 -8.99412 41.8199C-9.34152 39.0098 -7.66456 36.3577 -5.06118 35.2217C0.13269 32.9455 5.80263 36.2979 8.86921 38.6425C10.5119 39.8981 12.5105 40.6027 14.5778 40.6027H62.6951C63.6944 40.6027 64.5608 41.3117 64.7409 42.2939C64.9296 43.3317 64.9725 44.4121 64.9939 45.4627C65.0325 47.4229 65.0454 49.4515 65.856 51.2366C66.9926 53.7349 69.553 55.3492 72.2079 56.0881C73.739 56.5151 75.3131 56.6945 76.9043 56.7927H76.8957Z" fill="url(#paint9_linear_27_3)"/>
<path d="M76.8957 56.7927C78.1652 56.8738 79.0616 58.0654 78.7871 59.2996L77.9722 62.9809C77.9379 63.2157 77.895 63.4549 77.8349 63.6855L74.5067 77.5437C72.6754 85.1583 65.7874 90.488 57.9301 90.3727L26.265 89.9072C18.5107 89.7962 11.8414 84.4109 10.1301 76.8775L4.27149 51.0615C4.23289 50.8864 4.16856 50.7113 4.08278 50.5533C3.96698 50.344 3.85118 50.1433 3.73109 49.9554C2.27715 47.6407 -0.287623 46.304 -3.02824 46.1973C-7.38578 46.035 -8.73678 43.9125 -8.99412 41.8199C-9.34152 39.0098 -7.66456 36.3577 -5.06118 35.2217C0.13269 32.9455 5.80263 36.2979 8.86921 38.6425C10.5119 39.8981 12.5105 40.6027 14.5778 40.6027H62.6951C63.6944 40.6027 64.5608 41.3117 64.7409 42.2939C64.9296 43.3317 64.9725 44.4121 64.9939 45.4627C65.0325 47.4229 65.0454 49.4515 65.856 51.2366C66.9926 53.7349 69.553 55.3492 72.2079 56.0881C73.739 56.5151 75.3131 56.6945 76.9043 56.7927H76.8957Z" fill="url(#paint10_radial_27_3)"/>
<path d="M76.8957 56.7927C78.1652 56.8738 79.0616 58.0654 78.7871 59.2996L77.9722 62.9809C77.9379 63.2157 77.895 63.4549 77.8349 63.6855L74.5067 77.5437C72.6754 85.1583 65.7874 90.488 57.9301 90.3727L26.265 89.9072C18.5107 89.7962 11.8414 84.4109 10.1301 76.8775L4.27149 51.0615C4.23289 50.8864 4.16856 50.7113 4.08278 50.5533C3.96698 50.344 3.85118 50.1433 3.73109 49.9554C2.27715 47.6407 -0.287623 46.304 -3.02824 46.1973C-7.38578 46.035 -8.73678 43.9125 -8.99412 41.8199C-9.34152 39.0098 -7.66456 36.3577 -5.06118 35.2217C0.13269 32.9455 5.80263 36.2979 8.86921 38.6425C10.5119 39.8981 12.5105 40.6027 14.5778 40.6027H62.6951C63.6944 40.6027 64.5608 41.3117 64.7409 42.2939C64.9296 43.3317 64.9725 44.4121 64.9939 45.4627C65.0325 47.4229 65.0454 49.4515 65.856 51.2366C66.9926 53.7349 69.553 55.3492 72.2079 56.0881C73.739 56.5151 75.3131 56.6945 76.9043 56.7927H76.8957Z" fill="url(#paint11_radial_27_3)"/>
</mask>
<g mask="url(#mask2_27_3)">
<path d="M18.3105 104.913C-7.66548 96.2979 -11.3259 68.8333 -6.2251 45.5334C-4.99736 37.7032 -2.68304 28.0883 -0.203537 16.1647C2.41772 3.76566 4.51942 -5.87325 5.79462 -12.7274C6.99052 -18.9126 7.6933 -25.184 7.89632 -31.4818C7.77859 -44.3335 3.17336 -51.1397 -5.77641 -51.0684C-12.0346 -51.0684 -28.1869 -45.7849 -34.8464 -15.3695C-34.8464 -15.3695 -38.2707 5.64571 -49.4165 53.6489C-64.1289 130.926 -99.5508 105.484 -129.943 93.9413C-121.088 93.3226 -110.485 81.1609 -104.959 60.8124C-86.0668 -8.75327 -60.0907 -152.787 -60.0907 -152.787L-3.03682 -162.712L-24.6208 -64.634C-18.3259 -72.2574 -10.3534 -78.2956 -1.33698 -82.2697C5.17294 -84.7523 12.0601 -86.0808 19.0193 -86.1965C31.7003 -86.3152 41.6892 -83.1264 49.4353 -76.367C57.2041 -69.1087 61.2423 -58.0658 61.455 -43.4048C61.1054 -31.8355 59.5623 -20.334 56.8497 -9.08601C55.9055 -5.01654 54.6778 1.02829 52.9773 9.33447C49.4112 23.0668 40.981 55.8863 53.1659 69.5946C68.7517 87.1584 93.9487 69.1666 101.695 39.9879C87.4075 103.961 39.328 111.862 18.3105 104.913Z" fill="url(#paint12_radial_27_3)"/>
<path d="M18.3105 104.913C-7.66548 96.2979 -11.3259 68.8333 -6.2251 45.5334C-4.99736 37.7032 -2.68304 28.0883 -0.203537 16.1647C2.41772 3.76566 4.51942 -5.87325 5.79462 -12.7274C6.99052 -18.9126 7.6933 -25.184 7.89632 -31.4818C7.77859 -44.3335 3.17336 -51.1397 -5.77641 -51.0684C-12.0346 -51.0684 -28.1869 -45.7849 -34.8464 -15.3695C-34.8464 -15.3695 -38.2707 5.64571 -49.4165 53.6489C-64.1289 130.926 -99.5508 105.484 -129.943 93.9413C-121.088 93.3226 -110.485 81.1609 -104.959 60.8124C-86.0668 -8.75327 -60.0907 -152.787 -60.0907 -152.787L-3.03682 -162.712L-24.6208 -64.634C-18.3259 -72.2574 -10.3534 -78.2956 -1.33698 -82.2697C5.17294 -84.7523 12.0601 -86.0808 19.0193 -86.1965C31.7003 -86.3152 41.6892 -83.1264 49.4353 -76.367C57.2041 -69.1087 61.2423 -58.0658 61.455 -43.4048C61.1054 -31.8355 59.5623 -20.334 56.8497 -9.08601C55.9055 -5.01654 54.6778 1.02829 52.9773 9.33447C49.4112 23.0668 40.981 55.8863 53.1659 69.5946C68.7517 87.1584 93.9487 69.1666 101.695 39.9879C87.4075 103.961 39.328 111.862 18.3105 104.913Z" fill="url(#paint13_linear_27_3)"/>
<path d="M18.3105 104.913C-7.66548 96.2979 -11.3259 68.8333 -6.2251 45.5334C-4.99736 37.7032 -2.68304 28.0883 -0.203537 16.1647C2.41772 3.76566 4.51942 -5.87325 5.79462 -12.7274C6.99052 -18.9126 7.6933 -25.184 7.89632 -31.4818C7.77859 -44.3335 3.17336 -51.1397 -5.77641 -51.0684C-12.0346 -51.0684 -28.1869 -45.7849 -34.8464 -15.3695C-34.8464 -15.3695 -38.2707 5.64571 -49.4165 53.6489C-64.1289 130.926 -99.5508 105.484 -129.943 93.9413C-121.088 93.3226 -110.485 81.1609 -104.959 60.8124C-86.0668 -8.75327 -60.0907 -152.787 -60.0907 -152.787L-3.03682 -162.712L-24.6208 -64.634C-18.3259 -72.2574 -10.3534 -78.2956 -1.33698 -82.2697C5.17294 -84.7523 12.0601 -86.0808 19.0193 -86.1965C31.7003 -86.3152 41.6892 -83.1264 49.4353 -76.367C57.2041 -69.1087 61.2423 -58.0658 61.455 -43.4048C61.1054 -31.8355 59.5623 -20.334 56.8497 -9.08601C55.9055 -5.01654 54.6778 1.02829 52.9773 9.33447C49.4112 23.0668 40.981 55.8863 53.1659 69.5946C68.7517 87.1584 93.9487 69.1666 101.695 39.9879C87.4075 103.961 39.328 111.862 18.3105 104.913Z" fill="url(#paint14_radial_27_3)"/>
<path d="M18.3105 104.913C-7.66548 96.2979 -11.3259 68.8333 -6.2251 45.5334C-4.99736 37.7032 -2.68304 28.0883 -0.203537 16.1647C2.41772 3.76566 4.51942 -5.87325 5.79462 -12.7274C6.99052 -18.9126 7.6933 -25.184 7.89632 -31.4818C7.77859 -44.3335 3.17336 -51.1397 -5.77641 -51.0684C-12.0346 -51.0684 -28.1869 -45.7849 -34.8464 -15.3695C-34.8464 -15.3695 -38.2707 5.64571 -49.4165 53.6489C-64.1289 130.926 -99.5508 105.484 -129.943 93.9413C-121.088 93.3226 -110.485 81.1609 -104.959 60.8124C-86.0668 -8.75327 -60.0907 -152.787 -60.0907 -152.787L-3.03682 -162.712L-24.6208 -64.634C-18.3259 -72.2574 -10.3534 -78.2956 -1.33698 -82.2697C5.17294 -84.7523 12.0601 -86.0808 19.0193 -86.1965C31.7003 -86.3152 41.6892 -83.1264 49.4353 -76.367C57.2041 -69.1087 61.2423 -58.0658 61.455 -43.4048C61.1054 -31.8355 59.5623 -20.334 56.8497 -9.08601C55.9055 -5.01654 54.6778 1.02829 52.9773 9.33447C49.4112 23.0668 40.981 55.8863 53.1659 69.5946C68.7517 87.1584 93.9487 69.1666 101.695 39.9879C87.4075 103.961 39.328 111.862 18.3105 104.913Z" fill="url(#paint15_radial_27_3)"/>
</g>
<path d="M25.9887 111.299C31.2931 111.299 35.5931 106.999 35.5931 101.695C35.5931 96.3904 31.2931 92.0903 25.9887 92.0903C20.6842 92.0903 16.3842 96.3904 16.3842 101.695C16.3842 106.999 20.6842 111.299 25.9887 111.299Z" fill="#6F58D0"/>
<path d="M25.9887 111.299C31.2931 111.299 35.5931 106.999 35.5931 101.695C35.5931 96.3904 31.2931 92.0903 25.9887 92.0903C20.6842 92.0903 16.3842 96.3904 16.3842 101.695C16.3842 106.999 20.6842 111.299 25.9887 111.299Z" fill="url(#paint16_radial_27_3)" fill-opacity="0.8"/>
<path d="M53.6721 111.299C58.9765 111.299 63.2766 106.999 63.2766 101.695C63.2766 96.3904 58.9765 92.0903 53.6721 92.0903C48.3677 92.0903 44.0676 96.3904 44.0676 101.695C44.0676 106.999 48.3677 111.299 53.6721 111.299Z" fill="#6F58D0"/>
<path d="M53.6721 111.299C58.9765 111.299 63.2766 106.999 63.2766 101.695C63.2766 96.3904 58.9765 92.0903 53.6721 92.0903C48.3677 92.0903 44.0676 96.3904 44.0676 101.695C44.0676 106.999 48.3677 111.299 53.6721 111.299Z" fill="url(#paint17_radial_27_3)" fill-opacity="0.8"/>
<g filter="url(#filter0_d_27_3)">
<ellipse cx="75.4235" cy="45.4802" rx="8.19207" ry="8.19209" fill="#7A60E8"/>
</g>
<rect x="20.9042" y="55.3672" width="6.77964" height="23.7288" rx="3.38982" fill="url(#paint18_radial_27_3)"/>
<rect x="20.9042" y="55.3672" width="6.77964" height="23.7288" rx="3.38982" fill="url(#paint19_linear_27_3)"/>
<rect x="20.9042" y="55.3672" width="6.77964" height="23.7288" rx="3.38982" fill="url(#paint20_radial_27_3)"/>
<rect x="32.2036" y="55.3672" width="6.21467" height="23.7288" rx="3.10734" fill="url(#paint21_radial_27_3)"/>
<rect x="32.2036" y="55.3672" width="6.21467" height="23.7288" rx="3.10734" fill="url(#paint22_linear_27_3)"/>
<rect x="32.2036" y="55.3672" width="6.21467" height="23.7288" rx="3.10734" fill="url(#paint23_radial_27_3)"/>
<rect x="42.938" y="55.3672" width="6.21467" height="23.7288" rx="3.10734" fill="url(#paint24_radial_27_3)"/>
<rect x="42.938" y="55.3672" width="6.21467" height="23.7288" rx="3.10734" fill="url(#paint25_linear_27_3)"/>
<rect x="42.938" y="55.3672" width="6.21467" height="23.7288" rx="3.10734" fill="url(#paint26_radial_27_3)"/>
<rect x="53.6725" y="55.3672" width="6.21467" height="23.7288" rx="3.10734" fill="url(#paint27_radial_27_3)"/>
<rect x="53.6725" y="55.3672" width="6.21467" height="23.7288" rx="3.10734" fill="url(#paint28_linear_27_3)"/>
<rect x="53.6725" y="55.3672" width="6.21467" height="23.7288" rx="3.10734" fill="url(#paint29_radial_27_3)"/>
<path d="M76.7684 50.1909C75.6914 49.8665 75.5396 48.8323 75.7511 47.9549C75.802 47.66 75.898 47.298 76.0008 46.849C76.1095 46.3821 76.1966 46.0191 76.2495 45.761C76.2991 45.5281 76.3282 45.2919 76.3366 45.0547C76.3317 44.5708 76.1408 44.3145 75.7697 44.3172C75.5102 44.3172 74.8405 44.5161 74.5644 45.6615C74.5644 45.6615 74.4224 46.4529 73.9602 48.2605C73.3502 51.1705 71.8815 50.2125 70.6213 49.7778C70.9885 49.7545 71.4282 49.2965 71.6573 48.5303C72.4406 45.9106 73.5177 40.4868 73.5177 40.4868L75.8833 40.113L74.9884 43.8063C75.2494 43.5193 75.5799 43.2919 75.9538 43.1422C76.2237 43.0487 76.5093 42.9987 76.7978 42.9944C77.3236 42.9899 77.7378 43.11 78.059 43.3645C78.3811 43.6378 78.5485 44.0537 78.5574 44.6058C78.5429 45.0414 78.4789 45.4745 78.3664 45.8981C78.3273 46.0513 78.2764 46.279 78.2058 46.5918C78.058 47.1089 77.7084 48.3448 78.2137 48.861C78.8599 49.5224 79.9047 48.8449 80.2258 47.7461C79.6334 50.1551 77.6399 50.4526 76.7684 50.1909Z" fill="#F7F0FD"/>
</g>
<defs>
<filter id="filter0_d_27_3" x="63.2314" y="36.2881" width="24.3842" height="24.3843" filterUnits="userSpaceOnUse" color-interpolation-filters="sRGB">
<feFlood flood-opacity="0" result="BackgroundImageFix"/>
<feColorMatrix in="SourceAlpha" type="matrix" values="0 0 0 0 0 0 0 0 0 0 0 0 0 0 0 0 0 0 127 0" result="hardAlpha"/>
<feOffset dy="3"/>
<feGaussianBlur stdDeviation="2"/>
<feComposite in2="hardAlpha" operator="out"/>
<feColorMatrix type="matrix" values="0 0 0 0 0.665786 0 0 0 0 0.601562 0 0 0 0 0.9375 0 0 0 1 0"/>
<feBlend mode="normal" in2="BackgroundImageFix" result="effect1_dropShadow_27_3"/>
<feBlend mode="normal" in="SourceGraphic" in2="effect1_dropShadow_27_3" result="shape"/>
</filter>
<radialGradient id="paint0_radial_27_3" cx="0" cy="0" r="1" gradientUnits="userSpaceOnUse" gradientTransform="translate(76.8304 -7.9096) rotate(126.501) scale(140.568 140.568)">
<stop stop-color="#EEE3F4"/>
<stop offset="1" stop-color="#E3E1EA"/>
</radialGradient>
<radialGradient id="paint1_radial_27_3" cx="0" cy="0" r="1" gradientUnits="userSpaceOnUse" gradientTransform="translate(107.91 76.8306) rotate(-143.498) scale(140.568 140.568)">
<stop stop-color="#DBB3F0"/>
<stop offset="1" stop-color="#E3E1EA"/>
</radialGradient>
<linearGradient id="paint2_linear_27_3" x1="76.4456" y1="-12.6105" x2="1.44161" y2="83.3072" gradientUnits="userSpaceOnUse">
<stop stop-color="#C0C5FF"/>
<stop offset="1" stop-color="#634EF4"/>
</linearGradient>
<linearGradient id="paint3_linear_27_3" x1="68.57" y1="-23.6009" x2="32.4025" y2="84.5172" gradientUnits="userSpaceOnUse">
<stop stop-color="#634EF4"/>
<stop offset="1" stop-color="white"/>
</linearGradient>
<linearGradient id="paint4_linear_27_3" x1="28.9952" y1="70.9375" x2="-32.9346" y2="30.7919" gradientUnits="userSpaceOnUse">
<stop stop-color="#634EF4"/>
<stop offset="1" stop-color="white"/>
</linearGradient>
<radialGradient id="paint5_radial_27_3" cx="0" cy="0" r="1" gradientUnits="userSpaceOnUse" gradientTransform="translate(76.8304 -7.9096) rotate(126.501) scale(140.568 140.568)">
<stop stop-color="#DBB3F0"/>
<stop offset="1" stop-color="#E3E1EA"/>
</radialGradient>
<radialGradient id="paint6_radial_27_3" cx="0" cy="0" r="1" gradientUnits="userSpaceOnUse" gradientTransform="translate(47.8014 34.7843) rotate(-167.052) scale(38.5775 54.2071)">
<stop stop-color="white"/>
<stop offset="1" stop-color="#FBDA95"/>
</radialGradient>
<radialGradient id="paint7_radial_27_3" cx="0" cy="0" r="1" gradientUnits="userSpaceOnUse" gradientTransform="translate(84.1322 28.4819) rotate(132.41) scale(69.9949 89.6696)">
<stop stop-color="#3927B9"/>
<stop offset="1" stop-color="#BBB1FF" stop-opacity="0"/>
</radialGradient>
<radialGradient id="paint8_radial_27_3" cx="0" cy="0" r="1" gradientUnits="userSpaceOnUse" gradientTransform="translate(72.6259 38.7278) rotate(135.57) scale(64.1222 57.5241)">
<stop stop-color="#EEE9FF"/>
<stop offset="1" stop-color="#F8CDFF"/>
</radialGradient>
<linearGradient id="paint9_linear_27_3" x1="-9.0444" y1="22.144" x2="44.649" y2="110.721" gradientUnits="userSpaceOnUse">
<stop stop-color="#E4DDFF"/>
<stop offset="1" stop-color="#AD96FF" stop-opacity="0"/>
</linearGradient>
<radialGradient id="paint10_radial_27_3" cx="0" cy="0" r="1" gradientUnits="userSpaceOnUse" gradientTransform="translate(64.9715 90.3956) rotate(-129.523) scale(58.5938 42.3487)">
<stop stop-color="#8065F0"/>
<stop offset="1" stop-color="#DFD7FF"/>
</radialGradient>
<radialGradient id="paint11_radial_27_3" cx="0" cy="0" r="1" gradientUnits="userSpaceOnUse" gradientTransform="translate(36.4406 43.7854) rotate(25.4842) scale(33.4837 30.4631)">
<stop stop-color="#C469FF"/>
<stop offset="1" stop-color="#E6D7EF" stop-opacity="0"/>
</radialGradient>
<radialGradient id="paint12_radial_27_3" cx="0" cy="0" r="1" gradientUnits="userSpaceOnUse" gradientTransform="translate(85.3233 -142.114) rotate(131.271) scale(350.175 347.304)">
<stop stop-color="#EEE9FF"/>
<stop offset="1" stop-color="#F8CDFF"/>
</radialGradient>
<linearGradient id="paint13_linear_27_3" x1="-129.956" y1="-222.216" x2="160.96" y2="39.6929" gradientUnits="userSpaceOnUse">
<stop stop-color="#E4DDFF"/>
<stop offset="1" stop-color="#AD96FF" stop-opacity="0"/>
</linearGradient>
<radialGradient id="paint14_radial_27_3" cx="0" cy="0" r="1" gradientUnits="userSpaceOnUse" gradientTransform="translate(70.9278 95.1388) rotate(-125.534) scale(229.677 220.907)">
<stop stop-color="#7A60E8"/>
<stop offset="1" stop-color="#8638E6" stop-opacity="0"/>
</radialGradient>
<radialGradient id="paint15_radial_27_3" cx="0" cy="0" r="1" gradientUnits="userSpaceOnUse" gradientTransform="translate(-2.35879 -259.596) rotate(101.692) scale(222.804 193.926)">
<stop stop-color="#E4CDF3"/>
<stop offset="1" stop-color="#F6E9FF" stop-opacity="0"/>
</radialGradient>
<radialGradient id="paint16_radial_27_3" cx="0" cy="0" r="1" gradientUnits="userSpaceOnUse" gradientTransform="translate(36.7507 90.0353) rotate(120.164) scale(20.5361 22.9527)">
<stop stop-color="#3927B9"/>
<stop offset="1" stop-color="#BBB1FF" stop-opacity="0"/>
</radialGradient>
<radialGradient id="paint17_radial_27_3" cx="0" cy="0" r="1" gradientUnits="userSpaceOnUse" gradientTransform="translate(64.4342 90.0353) rotate(120.164) scale(20.5361 22.9527)">
<stop stop-color="#3927B9"/>
<stop offset="1" stop-color="#BBB1FF" stop-opacity="0"/>
</radialGradient>
<radialGradient id="paint18_radial_27_3" cx="0" cy="0" r="1" gradientUnits="userSpaceOnUse" gradientTransform="translate(27.2047 57.177) rotate(106.296) scale(24.0934 12.9812)">
<stop stop-color="#EEE9FF"/>
<stop offset="1" stop-color="#F8CDFF"/>
</radialGradient>
<linearGradient id="paint19_linear_27_3" x1="20.9038" y1="50.1388" x2="35.0477" y2="54.3804" gradientUnits="userSpaceOnUse">
<stop stop-color="#E4DDFF"/>
<stop offset="1" stop-color="#AD96FF" stop-opacity="0"/>
</linearGradient>
<radialGradient id="paint20_radial_27_3" cx="0" cy="0" r="1" gradientUnits="userSpaceOnUse" gradientTransform="translate(27.8639 52.5354) rotate(109.87) scale(20.4769 14.834)">
<stop stop-color="#C469FF"/>
<stop offset="1" stop-color="#E6D7EF" stop-opacity="0"/>
</radialGradient>
<radialGradient id="paint21_radial_27_3" cx="0" cy="0" r="1" gradientUnits="userSpaceOnUse" gradientTransform="translate(37.9791 57.177) rotate(105.002) scale(23.9415 11.975)">
<stop stop-color="#EEE9FF"/>
<stop offset="1" stop-color="#F8CDFF"/>
</radialGradient>
<linearGradient id="paint22_linear_27_3" x1="32.2033" y1="50.1388" x2="45.3417" y2="53.7505" gradientUnits="userSpaceOnUse">
<stop stop-color="#E4DDFF"/>
<stop offset="1" stop-color="#AD96FF" stop-opacity="0"/>
</linearGradient>
<radialGradient id="paint23_radial_27_3" cx="0" cy="0" r="1" gradientUnits="userSpaceOnUse" gradientTransform="translate(38.5833 52.5354) rotate(108.329) scale(20.2871 13.725)">
<stop stop-color="#C469FF"/>
<stop offset="1" stop-color="#E6D7EF" stop-opacity="0"/>
</radialGradient>
<radialGradient id="paint24_radial_27_3" cx="0" cy="0" r="1" gradientUnits="userSpaceOnUse" gradientTransform="translate(48.7134 57.177) rotate(105.002) scale(23.9415 11.975)">
<stop stop-color="#EEE9FF"/>
<stop offset="1" stop-color="#F8CDFF"/>
</radialGradient>
<linearGradient id="paint25_linear_27_3" x1="42.9376" y1="50.1388" x2="56.076" y2="53.7505" gradientUnits="userSpaceOnUse">
<stop stop-color="#E4DDFF"/>
<stop offset="1" stop-color="#AD96FF" stop-opacity="0"/>
</linearGradient>
<radialGradient id="paint26_radial_27_3" cx="0" cy="0" r="1" gradientUnits="userSpaceOnUse" gradientTransform="translate(49.3177 52.5354) rotate(108.329) scale(20.2871 13.725)">
<stop stop-color="#C469FF"/>
<stop offset="1" stop-color="#E6D7EF" stop-opacity="0"/>
</radialGradient>
<radialGradient id="paint27_radial_27_3" cx="0" cy="0" r="1" gradientUnits="userSpaceOnUse" gradientTransform="translate(59.4479 57.177) rotate(105.002) scale(23.9415 11.975)">
<stop stop-color="#EEE9FF"/>
<stop offset="1" stop-color="#F8CDFF"/>
</radialGradient>
<linearGradient id="paint28_linear_27_3" x1="53.6721" y1="50.1388" x2="66.8105" y2="53.7505" gradientUnits="userSpaceOnUse">
<stop stop-color="#E4DDFF"/>
<stop offset="1" stop-color="#AD96FF" stop-opacity="0"/>
</linearGradient>
<radialGradient id="paint29_radial_27_3" cx="0" cy="0" r="1" gradientUnits="userSpaceOnUse" gradientTransform="translate(60.0522 52.5354) rotate(108.329) scale(20.2871 13.725)">
<stop stop-color="#C469FF"/>
<stop offset="1" stop-color="#E6D7EF" stop-opacity="0"/>
</radialGradient>
</defs>
</svg>
